<?xml version="1.0" encoding="UTF-8" standalone="no"?>
<svg
   width="40.64mm"
   height="128.5mm"
   viewBox="0 0 40.64 128.5"
   version="1.1"
   id="svg21"
   sodipodi:docname="BitOscillator.svg"
   xml:space="preserve"
   inkscape:version="1.4.3 (0d15f75, 2025-12-25)"
   xmlns:inkscape="http://www.inkscape.org/namespaces/inkscape"
   xmlns:sodipodi="http://sodipodi.sourceforge.net/DTD/sodipodi-0.dtd"
   xmlns="http://www.w3.org/2000/svg"
   xmlns:svg="http://www.w3.org/2000/svg"><sodipodi:namedview
     id="namedview21"
     pagecolor="#ffffff"
     bordercolor="#000000"
     borderopacity="0.25"
     inkscape:showpageshadow="2"
     inkscape:pageopacity="0.0"
     inkscape:pagecheckerboard="0"
     inkscape:deskcolor="#d1d1d1"
     inkscape:document-units="mm"
     inkscape:zoom="4.6997838"
     inkscape:cx="61.066638"
     inkscape:cy="-13.724035"
     inkscape:window-width="1920"
     inkscape:window-height="1009"
     inkscape:window-x="-8"
     inkscape:window-y="-8"
     inkscape:window-maximized="1"
     inkscape:current-layer="svg21" /><defs
     id="defs1"><style
       id="style1">
      .panel { fill: #1a1a2e; }
      .label { font-family: 'Share Tech Mono', monospace, sans-serif; fill: #00ff88; font-size: 2.5px; text-anchor: middle; }
      .label-small { font-family: 'Share Tech Mono', monospace, sans-serif; fill: #00ff88; font-size: 2px; text-anchor: middle; }
      .title { font-family: 'Share Tech Mono', monospace, sans-serif; fill: #00ff88; font-size: 3.5px; text-anchor: middle; font-weight: bold; }
      .brand { font-family: 'Share Tech Mono', monospace, sans-serif; fill: #888888; font-size: 2px; text-anchor: middle; }
      .decoration { fill: none; stroke: #00ff88; stroke-width: 0.3; }
      .decoration-dim { fill: none; stroke: #004422; stroke-width: 0.2; }
    </style></defs><!-- Panel background --><path
     id="rect1"
     style="display:inline;fill:#1a1a2e"
     class="panel"
     d="M 0,0 H 40.639999 V 128.5 H 0 Z" /><!-- Decorative border --><path
     id="rect2"
     style="display:inline;fill:none;stroke:#00ff88;stroke-width:0.298033"
     class="decoration"
     d="M 3.0013574,5.8591228 H 37.638645 c 0.553956,0 0.999921,0.445965 0.999921,0.9999216 V 118.99864 c 0,0.55396 -0.445965,0.99993 -0.999921,0.99993 H 3.0013574 c -0.5539566,0 -0.9999216,-0.44597 -0.9999216,-0.99993 V 6.8590444 c 0,-0.5539566 0.445965,-0.9999216 0.9999216,-0.9999216 z" /><!-- Grid pattern decoration --><!-- Title --><path
     d="m 12.471389,2.6573184 q 0.13501,0.1042481 0.201661,0.2375489 0.06836,0.1315918 0.06836,0.2905273 0,0.1760254 -0.08716,0.324707 -0.08545,0.1469727 -0.27002,0.2324219 -0.18457,0.085449 -0.410156,0.085449 -0.225586,0 -0.406738,-0.085449 -0.181153,-0.085449 -0.268311,-0.2341308 -0.08545,-0.1486817 -0.08545,-0.3229981 0,-0.1589355 0.06665,-0.2905273 0.06836,-0.1333008 0.203369,-0.2375489 -0.117919,-0.109375 -0.177734,-0.2324218 -0.05981,-0.1230469 -0.05981,-0.2597657 0,-0.2683105 0.205078,-0.4614257 0.205078,-0.1948243 0.526367,-0.1948243 0.321289,0 0.526367,0.1948243 0.205078,0.1931152 0.205078,0.4614257 0,0.1384278 -0.05981,0.2614746 -0.05811,0.1230469 -0.177735,0.2307129 z M 12.350052,2.1719669 q 0,-0.1298828 -0.102539,-0.220459 -0.100831,-0.092285 -0.273438,-0.092285 -0.174316,0 -0.276855,0.092285 -0.100831,0.090576 -0.100831,0.220459 0,0.1315918 0.100831,0.2238769 0.102539,0.090576 0.276855,0.090576 0.172607,0 0.273438,-0.090576 0.102539,-0.092285 0.102539,-0.2238769 z m 0.04101,1.0305176 q 0,-0.1384278 -0.119629,-0.2495118 -0.11792,-0.1127929 -0.293945,-0.1127929 -0.176025,0 -0.295654,0.1127929 -0.11792,0.111084 -0.11792,0.2529297 0,0.109375 0.102539,0.1914063 0.102539,0.080322 0.311035,0.080322 0.210205,0 0.311035,-0.080322 0.102539,-0.082031 0.102539,-0.1948242 z m 2.418213,-0.2597657 h -1.462891 v -0.31958 h 1.462891 z m 0.651123,0.4836426 V 2.0557559 h -0.05469 q -0.126465,0 -0.181153,-0.047852 -0.05298,-0.049561 -0.05298,-0.1281739 0,-0.078613 0.05298,-0.1264648 0.05469,-0.049561 0.181153,-0.049561 h 0.878418 q 0.314453,0 0.505859,0.1760253 0.191406,0.1743165 0.191406,0.4152833 0,0.1145019 -0.04443,0.215332 -0.04443,0.1008301 -0.13501,0.1862793 0.165771,0.099121 0.247803,0.2324219 0.08374,0.1315918 0.08374,0.2990722 0,0.1333008 -0.05982,0.2478028 -0.04443,0.087158 -0.109375,0.1384277 -0.08716,0.071777 -0.213623,0.1179199 -0.126465,0.044434 -0.316162,0.044434 h -1.028808 q -0.126465,0 -0.181153,-0.047852 -0.05298,-0.049561 -0.05298,-0.1281738 0,-0.076904 0.05469,-0.1247558 0.05469,-0.049561 0.179444,-0.049561 z M 15.81074,2.5650333 h 0.384521 q 0.206788,0 0.343506,-0.1042481 0.09229,-0.070068 0.09229,-0.1743164 0,-0.092285 -0.08716,-0.1606445 -0.08716,-0.070068 -0.276855,-0.070068 h -0.456299 z m 0,0.8613281 h 0.60498 q 0.213623,0 0.300782,-0.063232 0.06665,-0.047852 0.06665,-0.1367188 0,-0.105957 -0.131592,-0.2084961 -0.131592,-0.102539 -0.377685,-0.102539 H 15.81074 Z m 2.640381,-1.3706055 v 1.3706055 h 0.35376 q 0.126464,0 0.179443,0.049561 0.05469,0.047852 0.05469,0.1264648 0,0.076904 -0.05469,0.1264648 -0.05298,0.047852 -0.179443,0.047852 h -1.057862 q -0.126465,0 -0.181152,-0.047852 -0.05298,-0.049561 -0.05298,-0.1281738 0,-0.076904 0.05298,-0.1247558 0.05469,-0.049561 0.181152,-0.049561 h 0.35376 V 2.0557559 h -0.35376 q -0.126465,0 -0.181152,-0.047852 -0.05298,-0.049561 -0.05298,-0.1281739 0,-0.078613 0.05298,-0.1264648 0.05469,-0.049561 0.181152,-0.049561 l 1.057862,0.00171 q 0.126464,0 0.179443,0.047852 0.05469,0.047852 0.05469,0.1264648 0,0.078613 -0.05469,0.1281739 -0.05298,0.047852 -0.179443,0.047852 z m 2.095215,0 v 1.3706055 h 0.235839 q 0.126465,0 0.179444,0.049561 0.05469,0.047852 0.05469,0.1264648 0,0.076904 -0.05469,0.1264648 -0.05298,0.047852 -0.179444,0.047852 h -0.820312 q -0.126465,0 -0.181152,-0.047852 -0.05298,-0.049561 -0.05298,-0.1281738 0,-0.076904 0.05298,-0.1247558 0.05469,-0.049561 0.181152,-0.049561 h 0.234131 V 2.0557559 h -0.379395 v 0.331543 q 0,0.1264649 -0.04956,0.1811524 -0.04785,0.052979 -0.126465,0.052979 -0.0769,0 -0.126465,-0.052979 -0.04785,-0.054688 -0.04785,-0.1811524 V 1.7037052 l 1.814941,0.00171 V 2.3873 q 0,0.1264649 -0.04956,0.1811524 -0.04785,0.052979 -0.126464,0.052979 -0.07691,0 -0.126465,-0.052979 Q 20.930861,2.5137644 20.930861,2.3873 V 2.055757 Z m 5.01416,0.6853028 q 0,0.4665527 -0.297363,0.7775879 -0.295655,0.3093261 -0.685303,0.3093261 -0.350342,0 -0.632324,-0.2580566 -0.348633,-0.3195801 -0.348633,-0.8288574 0,-0.5092774 0.348633,-0.8305664 0.281982,-0.2580567 0.632324,-0.2580567 0.389648,0 0.685303,0.3110352 0.297363,0.3093262 0.297363,0.7775879 z m -0.350342,0 q 0,-0.3195801 -0.193115,-0.5280762 -0.193115,-0.2102051 -0.439209,-0.2102051 -0.244385,0 -0.4375,0.2102051 -0.193115,0.2102051 -0.193115,0.5280762 0,0.3178711 0.193115,0.5280761 0.193115,0.2084961 0.4375,0.2084961 0.246094,0 0.439209,-0.2084961 0.193115,-0.208496 0.193115,-0.5280761 z m 0.955322,0.9467773 q -0.04614,0.054687 -0.0752,0.070068 -0.02734,0.015381 -0.06836,0.015381 -0.08032,0 -0.129883,-0.052979 -0.04785,-0.054687 -0.04785,-0.1794433 V 3.3050235 q 0,-0.1264648 0.04785,-0.1794433 0.04956,-0.054687 0.129883,-0.054687 0.06152,0 0.102539,0.032471 0.04272,0.032471 0.06494,0.109375 0.02222,0.075195 0.04614,0.102539 0.04956,0.052979 0.176025,0.107666 0.126465,0.054687 0.276855,0.054687 0.234131,0 0.384522,-0.109375 0.0957,-0.06665 0.0957,-0.1640625 0,-0.064941 -0.04614,-0.1213379 -0.04614,-0.058105 -0.150391,-0.095703 -0.06836,-0.025635 -0.305908,-0.070068 -0.28711,-0.052979 -0.434082,-0.1281739 -0.146973,-0.075195 -0.232422,-0.211914 -0.08545,-0.1367188 -0.08545,-0.2956543 0,-0.2512207 0.210205,-0.439209 0.210205,-0.1896973 0.546875,-0.1896973 0.135009,0 0.249511,0.030762 0.116211,0.029053 0.210205,0.090576 0.06836,-0.06665 0.136719,-0.06665 0.0769,0 0.124756,0.054687 0.04956,0.052979 0.04956,0.1777344 v 0.2631836 q 0,0.1264648 -0.04956,0.1811523 -0.04785,0.052979 -0.124756,0.052979 -0.06494,0 -0.112793,-0.039307 -0.0376,-0.029053 -0.0564,-0.1162109 -0.0188,-0.087158 -0.04785,-0.1247559 -0.04956,-0.064941 -0.148681,-0.109375 -0.09912,-0.044434 -0.229004,-0.044434 -0.189698,0 -0.300782,0.088867 -0.109375,0.087158 -0.109375,0.1828613 0,0.064941 0.04443,0.1264649 0.04614,0.059814 0.133301,0.093994 0.05811,0.023926 0.326416,0.076904 0.270019,0.052979 0.413574,0.116211 0.145264,0.063232 0.240967,0.1982421 0.0957,0.1350098 0.0957,0.3212891 0,0.2597656 -0.182861,0.4152832 -0.242676,0.2050781 -0.618653,0.2050781 -0.145263,0 -0.283691,-0.035889 -0.136719,-0.03418 -0.266602,-0.1042481 z m 3.161621,-1.8935547 q 0.03247,-0.044434 0.07007,-0.06665 0.03931,-0.022217 0.08374,-0.022217 0.0769,0 0.124756,0.052979 0.04956,0.052979 0.04956,0.1794433 v 0.2973633 q 0,0.1264648 -0.04956,0.1811523 -0.04785,0.052979 -0.124756,0.052979 -0.07007,0 -0.112793,-0.039307 -0.04272,-0.039307 -0.06323,-0.1469726 -0.01196,-0.071777 -0.04785,-0.111084 -0.07007,-0.076904 -0.196533,-0.1230469 -0.124756,-0.046143 -0.251221,-0.046143 -0.157226,0 -0.288818,0.068359 -0.131592,0.068359 -0.232422,0.222168 -0.10083,0.1538086 -0.10083,0.3657226 v 0.2272949 q 0,0.2529297 0.182861,0.4221192 0.18457,0.1691894 0.510986,0.1691894 0.194825,0 0.329834,-0.052979 0.07861,-0.030762 0.167481,-0.1213379 0.05469,-0.054687 0.08545,-0.070068 0.03076,-0.01709 0.07007,-0.01709 0.07007,0 0.123047,0.052979 0.05298,0.052979 0.05298,0.1247559 0,0.071777 -0.07178,0.1538086 -0.104249,0.1196289 -0.268311,0.1879883 -0.220459,0.092285 -0.487061,0.092285 -0.311035,0 -0.560546,-0.1281738 Q 28.120559,3.5972598 27.978714,3.3768009 27.836868,3.1546329 27.836868,2.8931583 V 2.6556095 q 0,-0.2734375 0.126465,-0.5092774 0.128174,-0.2375488 0.35376,-0.3657226 0.225586,-0.1281739 0.478515,-0.1281739 0.1521,0 0.283692,0.035889 0.1333,0.03418 0.247802,0.105957 z"
     id="text6"
     class="title"
     style="font-weight:bold;font-size:3.5px;font-family:'Share Tech Mono', monospace, sans-serif;text-anchor:middle;fill:#00ff88"
     aria-label="8-BIT OSC" /><path
     d="m 16.969414,126.03462 v -0.97851 h -0.110352 q -0.0293,0 -0.04199,-0.0108 -0.0127,-0.0117 -0.0127,-0.0303 0,-0.0186 0.0127,-0.0293 0.01269,-0.0117 0.04199,-0.0117 h 0.515625 q 0.153321,0 0.249024,0.0889 0.09668,0.0879 0.09668,0.20703 0,0.15039 -0.161132,0.24317 0.127929,0.0459 0.1875,0.12207 0.05957,0.0762 0.05957,0.16797 0,0.082 -0.03906,0.15039 -0.03906,0.0674 -0.120117,0.11523 -0.08008,0.0479 -0.174805,0.0479 h -0.613281 q -0.0293,0 -0.04199,-0.0117 -0.0127,-0.0117 -0.0127,-0.0293 0,-0.0186 0.0127,-0.0293 0.01269,-0.0117 0.04199,-0.0117 z m 0.08203,-0.55273 h 0.290039 q 0.09277,0 0.169922,-0.0342 0.05957,-0.0273 0.09277,-0.0791 0.0332,-0.0518 0.0332,-0.10547 0,-0.0772 -0.07227,-0.1416 -0.07227,-0.0654 -0.188477,-0.0654 h -0.325195 z m 0,0.55273 h 0.415039 q 0.0791,0 0.137695,-0.0352 0.05859,-0.0352 0.08887,-0.0869 0.03027,-0.0518 0.03027,-0.10742 0,-0.0625 -0.04395,-0.12109 -0.04297,-0.0586 -0.120117,-0.0889 -0.07715,-0.0303 -0.212891,-0.0303 h -0.294922 z m 1.509766,-0.97851 v 0.97851 h 0.28125 q 0.0293,0 0.04199,0.0117 0.0127,0.0107 0.0127,0.0293 0,0.0176 -0.0127,0.0293 -0.0127,0.0117 -0.04199,0.0117 h -0.644532 q -0.0293,0 -0.04199,-0.0117 -0.0127,-0.0117 -0.0127,-0.0293 0,-0.0186 0.0127,-0.0293 0.0127,-0.0117 0.04199,-0.0117 h 0.28125 v -0.97851 h -0.28125 q -0.0293,0 -0.04199,-0.0108 -0.0127,-0.0117 -0.0127,-0.0303 0,-0.0186 0.0127,-0.0293 0.0127,-0.0117 0.04199,-0.0117 h 0.644532 q 0.0293,0 0.04199,0.0117 0.0127,0.0108 0.0127,0.0293 0,0.0186 -0.0127,0.0303 -0.0127,0.0108 -0.04199,0.0108 z m 1.199218,0 v 0.97851 h 0.212891 q 0.0293,0 0.04199,0.0117 0.0127,0.0107 0.0127,0.0293 0,0.0176 -0.0127,0.0293 -0.0127,0.0117 -0.04199,0.0117 h -0.508789 q -0.0293,0 -0.04199,-0.0117 -0.0127,-0.0117 -0.0127,-0.0293 0,-0.0186 0.0127,-0.0293 0.0127,-0.0117 0.04199,-0.0117 h 0.212891 v -0.97851 h -0.335938 v 0.28418 q 0,0.0303 -0.01172,0.043 -0.01074,0.0127 -0.0293,0.0127 -0.01758,0 -0.0293,-0.0127 -0.01172,-0.0127 -0.01172,-0.043 v -0.36621 h 0.918945 v 0.36621 q 0,0.0303 -0.01172,0.043 -0.01074,0.0127 -0.0293,0.0127 -0.01855,0 -0.03027,-0.0127 -0.01074,-0.0127 -0.01074,-0.043 v -0.28418 z M 20.57,126.03462 v -0.97851 h -0.110352 q -0.0293,0 -0.04199,-0.0108 -0.0127,-0.0117 -0.0127,-0.0303 0,-0.0186 0.0127,-0.0293 0.0127,-0.0117 0.04199,-0.0117 h 0.515625 q 0.15332,0 0.249024,0.0889 0.09668,0.0879 0.09668,0.20703 0,0.15039 -0.161133,0.24317 0.12793,0.0459 0.1875,0.12207 0.05957,0.0762 0.05957,0.16797 0,0.082 -0.03906,0.15039 -0.03906,0.0674 -0.120117,0.11523 -0.08008,0.0479 -0.174805,0.0479 h -0.613281 q -0.0293,0 -0.04199,-0.0117 -0.0127,-0.0117 -0.0127,-0.0293 0,-0.0186 0.0127,-0.0293 0.0127,-0.0117 0.04199,-0.0117 z m 0.08203,-0.55273 h 0.290039 q 0.09277,0 0.169922,-0.0342 0.05957,-0.0273 0.09277,-0.0791 0.0332,-0.0518 0.0332,-0.10547 0,-0.0772 -0.07226,-0.1416 -0.07227,-0.0654 -0.188477,-0.0654 h -0.325195 z m 0,0.55273 h 0.415039 q 0.0791,0 0.137695,-0.0352 0.05859,-0.0352 0.08887,-0.0869 0.03027,-0.0518 0.03027,-0.10742 0,-0.0625 -0.04395,-0.12109 -0.04297,-0.0586 -0.120118,-0.0889 -0.07715,-0.0303 -0.21289,-0.0303 h -0.294922 z m 1.969727,-0.48633 q 0,0.16407 -0.06641,0.30469 -0.06641,0.13965 -0.183593,0.21778 -0.116211,0.0781 -0.25,0.0781 -0.198243,0 -0.34961,-0.16797 -0.15039,-0.16894 -0.15039,-0.43262 0,-0.26464 0.15039,-0.43261 0.151367,-0.16797 0.34961,-0.16797 0.133789,0 0.25,0.0781 0.11621,0.0781 0.182617,0.21778 0.06738,0.13965 0.06738,0.30468 z m -0.08301,0 q 0,-0.20019 -0.116211,-0.35937 -0.116211,-0.15918 -0.300781,-0.15918 -0.172852,0 -0.295899,0.15234 -0.12207,0.15137 -0.12207,0.36621 0,0.22852 0.127929,0.37403 0.128907,0.14453 0.29004,0.14453 0.18457,0 0.300781,-0.1582 0.116211,-0.15918 0.116211,-0.36036 z m 0.825195,0.0527 v 0.43359 h 0.212891 q 0.0293,0 0.04199,0.0117 0.0127,0.0107 0.0127,0.0293 0,0.0176 -0.0127,0.0293 -0.0127,0.0117 -0.04199,0.0117 h -0.508789 q -0.0293,0 -0.04199,-0.0117 -0.01269,-0.0117 -0.01269,-0.0293 0,-0.0186 0.01172,-0.0293 0.0127,-0.0117 0.04297,-0.0117 h 0.21289 v -0.43359 l -0.360351,-0.54492 h -0.04883 q -0.0293,0 -0.04199,-0.0108 -0.01269,-0.0117 -0.01269,-0.0303 0,-0.0186 0.01269,-0.0293 0.0127,-0.0117 0.04199,-0.0117 h 0.225585 q 0.0293,0 0.04199,0.0117 0.0127,0.0108 0.0127,0.0293 0,0.0186 -0.0127,0.0303 -0.0127,0.0108 -0.04199,0.0108 h -0.08105 l 0.30664,0.46191 0.299805,-0.46191 h -0.08008 q -0.03027,0 -0.04297,-0.0108 -0.0127,-0.0117 -0.0127,-0.0303 0,-0.0186 0.0127,-0.0293 0.0127,-0.0117 0.04297,-0.0117 h 0.224609 q 0.0293,0 0.04199,0.0117 0.0127,0.0108 0.0127,0.0293 0,0.0186 -0.0127,0.0303 -0.0127,0.0108 -0.04199,0.0108 h -0.04883 z"
     id="text7"
     class="brand"
     style="font-size:2px;font-family:'Share Tech Mono', monospace, sans-serif;text-anchor:middle;fill:#888888"
     aria-label="BITBOY" /><!-- Waveform label --><path
     d="M 18.519463,22.058334 H 18.35833 l -0.290528,-1.014404 -0.284423,1.014404 h -0.161133 l -0.151367,-1.325683 h -0.03784 q -0.03662,0 -0.05249,-0.01343 -0.01587,-0.01465 -0.01587,-0.03784 0,-0.02319 0.01587,-0.03662 0.01587,-0.01465 0.05249,-0.01465 h 0.380859 q 0.03784,0 0.05371,0.01465 0.01587,0.01343 0.01587,0.03662 0,0.02319 -0.01587,0.03784 -0.01587,0.01343 -0.05371,0.01343 h -0.239258 l 0.135498,1.208496 0.2771,-0.994873 h 0.157471 l 0.284424,0.994873 0.133056,-1.208496 h -0.240478 q -0.03662,0 -0.05249,-0.01343 -0.01587,-0.01465 -0.01587,-0.03784 0,-0.02319 0.01587,-0.03662 0.01587,-0.01465 0.05249,-0.01465 h 0.378418 q 0.03784,0 0.05371,0.01465 0.01587,0.01343 0.01587,0.03662 0,0.02319 -0.01587,0.03784 -0.01587,0.01343 -0.05371,0.01343 h -0.03784 z m 1.387939,-0.477295 h -0.673828 l -0.13794,0.374756 h 0.196534 q 0.03662,0 0.05249,0.01465 0.01587,0.01343 0.01587,0.03662 0,0.02197 -0.01587,0.03662 -0.01587,0.01465 -0.05249,0.01465 h -0.383301 q -0.03662,0 -0.05249,-0.01465 -0.01587,-0.01465 -0.01587,-0.03662 0,-0.02319 0.01587,-0.03662 0.01587,-0.01465 0.05249,-0.01465 h 0.07935 l 0.45288,-1.223144 h -0.302734 q -0.03662,0 -0.05249,-0.01343 -0.01587,-0.01465 -0.01587,-0.03784 0,-0.02319 0.01587,-0.03662 0.01587,-0.01465 0.05249,-0.01465 h 0.516357 l 0.500489,1.325683 h 0.07935 q 0.03662,0 0.05249,0.01465 0.01587,0.01343 0.01587,0.03662 0,0.02197 -0.01587,0.03662 -0.01587,0.01465 -0.05249,0.01465 h -0.38208 q -0.03784,0 -0.05371,-0.01465 -0.01587,-0.01465 -0.01587,-0.03662 0,-0.02319 0.01587,-0.03662 0.01587,-0.01465 0.05371,-0.01465 h 0.195313 z M 19.86834,21.4785 19.585136,20.732651 h -0.03784 L 19.272636,21.4785 Z m 1.278076,0.579834 h -0.142823 l -0.516357,-1.325683 h -0.07935 q -0.02808,0 -0.04028,-0.0049 -0.01221,-0.0061 -0.02075,-0.01831 -0.0073,-0.01343 -0.0073,-0.02808 0,-0.01465 0.0073,-0.02685 0.0085,-0.01343 0.02075,-0.01831 0.01221,-0.0061 0.04028,-0.0061 h 0.38208 q 0.0293,0 0.04028,0.0061 0.01221,0.0049 0.01953,0.01831 0.0085,0.01221 0.0085,0.02685 0,0.01465 -0.0085,0.02808 -0.0085,0.01221 -0.02075,0.01831 -0.01099,0.0049 -0.03906,0.0049 h -0.196533 l 0.476074,1.223144 h 0.0073 l 0.46997,-1.223144 h -0.195312 q -0.0293,0 -0.0415,-0.0049 -0.01221,-0.0061 -0.02075,-0.01831 -0.0073,-0.01343 -0.0073,-0.02808 0,-0.01465 0.0085,-0.02685 0.0085,-0.01343 0.01953,-0.01831 0.01221,-0.0061 0.0415,-0.0061 h 0.380859 q 0.0293,0 0.0415,0.0061 0.01221,0.0049 0.01953,0.01831 0.0085,0.01221 0.0085,0.02685 0,0.01465 -0.0085,0.02808 -0.0085,0.01221 -0.02075,0.01831 -0.01099,0.0049 -0.04028,0.0049 h -0.07813 z m 1.090088,-0.689697 v 0.587158 h 0.788574 v -0.302734 q 0,-0.03662 0.01343,-0.05249 0.01465,-0.01587 0.03784,-0.01587 0.02319,0 0.03662,0.01587 0.01465,0.01587 0.01465,0.05249 v 0.405273 h -1.131592 q -0.03662,0 -0.05249,-0.01465 -0.01587,-0.01465 -0.01587,-0.03662 0,-0.02319 0.01587,-0.03662 0.01587,-0.01465 0.05249,-0.01465 h 0.13794 v -1.223144 h -0.13794 q -0.03662,0 -0.05249,-0.01343 -0.01587,-0.01465 -0.01587,-0.03784 0,-0.02319 0.01587,-0.03662 0.01587,-0.01465 0.05249,-0.01465 h 1.077881 v 0.352783 q 0,0.03662 -0.01465,0.05249 -0.01343,0.01587 -0.03662,0.01587 -0.02319,0 -0.03784,-0.01587 -0.01343,-0.01587 -0.01343,-0.05249 v -0.250244 h -0.734863 v 0.533447 h 0.367431 v -0.115967 q 0,-0.03662 0.01465,-0.05249 0.01465,-0.01587 0.03784,-0.01587 0.02197,0 0.03662,0.01587 0.01465,0.01587 0.01465,0.05249 v 0.334473 q 0,0.03662 -0.01465,0.05249 -0.01465,0.01587 -0.03662,0.01587 -0.02319,0 -0.03784,-0.01587 -0.01465,-0.01587 -0.01465,-0.05249 v -0.115967 z"
     id="text8"
     class="label"
     style="font-size:2.5px;font-family:'Share Tech Mono', monospace, sans-serif;text-anchor:middle;fill:#00ff88"
     aria-label="WAVE" /><!-- Pitch labels --><path
     d="m 17.096733,39.176567 v 0.483399 h 0.351563 q 0.03662,0 0.05249,0.01465 0.01587,0.01343 0.01587,0.03662 0,0.02197 -0.01587,0.03662 -0.01587,0.01465 -0.05249,0.01465 h -0.592041 q -0.03662,0 -0.05249,-0.01465 -0.01587,-0.01465 -0.01587,-0.03662 0,-0.02319 0.01587,-0.03662 0.01587,-0.01465 0.05249,-0.01465 h 0.137939 v -1.223145 h -0.137939 q -0.03662,0 -0.05249,-0.01343 -0.01587,-0.01465 -0.01587,-0.03784 0,-0.02319 0.01587,-0.03662 0.01587,-0.01465 0.05249,-0.01465 h 0.595703 q 0.211181,0 0.344238,0.124512 0.134277,0.124511 0.134277,0.291748 0,0.09888 -0.04395,0.178222 -0.04272,0.07935 -0.10376,0.124512 -0.09155,0.06836 -0.189209,0.100098 -0.0708,0.02319 -0.175781,0.02319 z m 0,-0.102539 h 0.327149 q 0.113525,0 0.212402,-0.05005 0.100098,-0.05127 0.145264,-0.124512 0.04639,-0.07324 0.04639,-0.148925 0,-0.12085 -0.10376,-0.217285 -0.103759,-0.09644 -0.262451,-0.09644 h -0.36499 z m 1.774902,-0.637207 v 1.223145 h 0.351563 q 0.03662,0 0.05249,0.01465 0.01587,0.01343 0.01587,0.03662 0,0.02197 -0.01587,0.03662 -0.01587,0.01465 -0.05249,0.01465 h -0.805664 q -0.03662,0 -0.05249,-0.01465 -0.01587,-0.01465 -0.01587,-0.03662 0,-0.02319 0.01587,-0.03662 0.01587,-0.01465 0.05249,-0.01465 h 0.351562 v -1.223145 h -0.351562 q -0.03662,0 -0.05249,-0.01343 -0.01587,-0.01465 -0.01587,-0.03784 0,-0.02319 0.01587,-0.03662 0.01587,-0.01465 0.05249,-0.01465 h 0.805664 q 0.03662,0 0.05249,0.01465 0.01587,0.01343 0.01587,0.03662 0,0.02319 -0.01587,0.03784 -0.01587,0.01343 -0.05249,0.01343 z m 1.499024,0 v 1.223145 h 0.266113 q 0.03662,0 0.05249,0.01465 0.01587,0.01343 0.01587,0.03662 0,0.02197 -0.01587,0.03662 -0.01587,0.01465 -0.05249,0.01465 h -0.635986 q -0.03662,0 -0.05249,-0.01465 -0.01587,-0.01465 -0.01587,-0.03662 0,-0.02319 0.01587,-0.03662 0.01587,-0.01465 0.05249,-0.01465 h 0.266113 v -1.223145 h -0.419922 v 0.355225 q 0,0.03784 -0.01465,0.05371 -0.01343,0.01587 -0.03662,0.01587 -0.02197,0 -0.03662,-0.01587 -0.01465,-0.01587 -0.01465,-0.05371 v -0.457764 h 1.148682 v 0.457764 q 0,0.03784 -0.01465,0.05371 -0.01343,0.01587 -0.03662,0.01587 -0.02319,0 -0.03784,-0.01587 -0.01343,-0.01587 -0.01343,-0.05371 v -0.355225 z m 1.900635,0.03784 v -0.07202 q 0,-0.03662 0.01343,-0.05249 0.01465,-0.01587 0.03784,-0.01587 0.02319,0 0.03662,0.01587 0.01465,0.01587 0.01465,0.05249 v 0.284424 q 0,0.03784 -0.01465,0.05371 -0.01343,0.01587 -0.03662,0.01587 -0.02075,0 -0.0354,-0.01465 -0.01343,-0.01465 -0.01587,-0.04761 -0.0061,-0.102539 -0.111084,-0.181884 -0.141602,-0.108643 -0.322266,-0.108643 -0.118408,0 -0.223389,0.05249 -0.07813,0.03784 -0.124511,0.09277 -0.08057,0.09521 -0.128174,0.211181 -0.03418,0.08545 -0.03418,0.192871 v 0.179444 q 0,0.229492 0.166016,0.39917 0.166015,0.168457 0.385742,0.168457 0.131836,0 0.235596,-0.05737 0.10498,-0.05737 0.202636,-0.17334 0.02075,-0.02564 0.04639,-0.02564 0.02197,0 0.0354,0.01343 0.01343,0.01343 0.01343,0.03418 0,0.02808 -0.05249,0.08545 -0.100098,0.112304 -0.22583,0.169677 -0.124512,0.05615 -0.252686,0.05615 -0.111084,0 -0.22583,-0.04272 -0.08789,-0.03296 -0.145263,-0.0769 -0.05737,-0.04395 -0.141602,-0.147705 -0.08301,-0.104981 -0.113525,-0.192871 -0.03052,-0.08911 -0.03052,-0.195313 v -0.20874 q 0,-0.151367 0.08057,-0.308838 0.08179,-0.158691 0.222168,-0.24292 0.141602,-0.08545 0.306397,-0.08545 0.253906,0 0.437012,0.17334 z m 1.396484,0.596924 h -0.679932 v 0.588379 h 0.13794 q 0.03662,0 0.05249,0.01465 0.01587,0.01343 0.01587,0.03662 0,0.02197 -0.01587,0.03662 -0.01587,0.01465 -0.05249,0.01465 h -0.356445 q -0.03662,0 -0.05249,-0.01465 -0.01587,-0.01465 -0.01587,-0.03662 0,-0.02319 0.01587,-0.03662 0.01587,-0.01465 0.05249,-0.01465 h 0.115966 v -1.223145 h -0.06348 q -0.03784,0 -0.05371,-0.01343 -0.01587,-0.01465 -0.01587,-0.03784 0,-0.02319 0.01587,-0.03662 0.01587,-0.01465 0.05371,-0.01465 h 0.303955 q 0.03662,0 0.05249,0.01465 0.01587,0.01343 0.01587,0.03662 0,0.02319 -0.01587,0.03784 -0.01587,0.01343 -0.05249,0.01343 h -0.13794 v 0.532227 h 0.679932 v -0.532227 h -0.136719 q -0.03662,0 -0.05249,-0.01343 -0.01587,-0.01465 -0.01587,-0.03784 0,-0.02319 0.01465,-0.03662 0.01587,-0.01465 0.05371,-0.01465 h 0.303955 q 0.03784,0 0.05371,0.01465 0.01587,0.01343 0.01587,0.03662 0,0.02319 -0.01587,0.03784 -0.01587,0.01343 -0.05371,0.01343 h -0.06348 v 1.223145 h 0.115967 q 0.03662,0 0.05249,0.01465 0.01587,0.01343 0.01587,0.03662 0,0.02197 -0.01587,0.03662 -0.01587,0.01465 -0.05249,0.01465 h -0.356446 q -0.03662,0 -0.05249,-0.01465 -0.01587,-0.01465 -0.01587,-0.03662 0,-0.02319 0.01465,-0.03662 0.01587,-0.01465 0.05371,-0.01465 h 0.136719 z"
     id="text9"
     class="label"
     style="font-size:2.5px;font-family:'Share Tech Mono', monospace, sans-serif;text-anchor:middle;fill:#00ff88"
     aria-label="PITCH" /><path
     d="m 18.321953,52.506577 v 0.469726 h 0.28125 q 0.0293,0 0.04199,0.01172 0.01269,0.01074 0.01269,0.0293 0,0.01758 -0.01269,0.0293 -0.0127,0.01172 -0.04199,0.01172 H 18.12957 q -0.0293,0 -0.04199,-0.01172 -0.0127,-0.01172 -0.0127,-0.0293 0,-0.01855 0.0127,-0.0293 0.0127,-0.01172 0.04199,-0.01172 h 0.110352 V 51.997787 H 18.12957 q -0.0293,0 -0.04199,-0.01074 -0.0127,-0.01172 -0.0127,-0.03027 0,-0.01855 0.01465,-0.03125 0.01074,-0.0098 0.04004,-0.0098 h 0.90332 v 0.282227 q 0,0.0293 -0.01172,0.04199 -0.01172,0.0127 -0.0293,0.0127 -0.01855,0 -0.03027,-0.0127 -0.01172,-0.0127 -0.01172,-0.04199 v -0.200196 h -0.62793 v 0.426758 h 0.293945 v -0.09277 q 0,-0.0293 0.01172,-0.04199 0.01172,-0.0127 0.03027,-0.0127 0.01758,0 0.0293,0.0127 0.01172,0.0127 0.01172,0.04199 v 0.267578 q 0,0.0293 -0.01172,0.04199 -0.01172,0.0127 -0.0293,0.0127 -0.01855,0 -0.03027,-0.0127 -0.01172,-0.0127 -0.01172,-0.04199 v -0.09277 z m 1.439453,-0.50879 v 0.978516 h 0.28125 q 0.0293,0 0.04199,0.01172 0.01269,0.01074 0.01269,0.0293 0,0.01758 -0.01269,0.0293 -0.0127,0.01172 -0.04199,0.01172 h -0.644531 q -0.0293,0 -0.04199,-0.01172 -0.0127,-0.01172 -0.0127,-0.0293 0,-0.01855 0.0127,-0.0293 0.0127,-0.01172 0.04199,-0.01172 h 0.28125 v -0.978516 h -0.28125 q -0.0293,0 -0.04199,-0.01074 -0.0127,-0.01172 -0.0127,-0.03027 0,-0.01855 0.0127,-0.0293 0.0127,-0.01172 0.04199,-0.01172 h 0.644531 q 0.0293,0 0.04199,0.01172 0.01269,0.01074 0.01269,0.0293 0,0.01855 -0.01269,0.03027 -0.0127,0.01074 -0.04199,0.01074 z m 1.560547,1.060547 h -0.105469 l -0.604492,-1.022461 v 0.94043 h 0.151367 q 0.03027,0 0.04297,0.01172 0.0127,0.01074 0.0127,0.0293 0,0.01758 -0.0127,0.0293 -0.0127,0.01172 -0.04297,0.01172 h -0.301758 q -0.03027,0 -0.04297,-0.01172 -0.0127,-0.01172 -0.0127,-0.0293 0,-0.01855 0.0127,-0.0293 0.0127,-0.01172 0.04297,-0.01172 h 0.06836 v -0.978516 h -0.110352 q -0.0293,0 -0.04199,-0.01074 -0.0127,-0.01172 -0.0127,-0.03027 0,-0.01855 0.0127,-0.0293 0.0127,-0.01172 0.04199,-0.01172 h 0.214844 l 0.605469,1.024414 v -0.942383 h -0.151368 q -0.0293,0 -0.04199,-0.01074 -0.0127,-0.01172 -0.0127,-0.03027 0,-0.01855 0.01172,-0.0293 0.0127,-0.01172 0.04297,-0.01172 h 0.302735 q 0.0293,0 0.04199,0.01172 0.0127,0.01074 0.0127,0.0293 0,0.01855 -0.0127,0.03027 -0.0127,0.01074 -0.04199,0.01074 h -0.06934 z m 0.53125,-0.551757 v 0.469726 h 0.630859 v -0.242187 q 0,-0.0293 0.01074,-0.04199 0.01172,-0.0127 0.03027,-0.0127 0.01855,0 0.0293,0.0127 0.01172,0.0127 0.01172,0.04199 v 0.324218 H 21.66082 q -0.0293,0 -0.04199,-0.01172 -0.0127,-0.01172 -0.0127,-0.0293 0,-0.01855 0.0127,-0.0293 0.0127,-0.01172 0.04199,-0.01172 h 0.110352 V 51.997787 H 21.66082 q -0.0293,0 -0.04199,-0.01074 -0.0127,-0.01172 -0.0127,-0.03027 0,-0.01855 0.0127,-0.0293 0.0127,-0.01172 0.04199,-0.01172 h 0.862305 v 0.282227 q 0,0.0293 -0.01172,0.04199 -0.01074,0.0127 -0.0293,0.0127 -0.01856,0 -0.03027,-0.0127 -0.01074,-0.0127 -0.01074,-0.04199 v -0.200196 h -0.58789 v 0.426758 h 0.293945 v -0.09277 q 0,-0.0293 0.01172,-0.04199 0.01172,-0.0127 0.03027,-0.0127 0.01758,0 0.0293,0.0127 0.01172,0.0127 0.01172,0.04199 v 0.267578 q 0,0.0293 -0.01172,0.04199 -0.01172,0.0127 -0.0293,0.0127 -0.01855,0 -0.03027,-0.0127 -0.01172,-0.0127 -0.01172,-0.04199 v -0.09277 z"
     id="text10"
     class="label-small"
     style="font-size:2px;font-family:'Share Tech Mono', monospace, sans-serif;text-anchor:middle;fill:#00ff88"
     aria-label="FINE" /><!-- Pulse Width labels --><path
     d="m 9.3816795,56.239578 v 0.386719 h 0.28125 q 0.029297,0 0.041992,0.01172 0.012695,0.01074 0.012695,0.0293 0,0.01758 -0.012695,0.0293 -0.012695,0.01172 -0.041992,0.01172 H 9.1892967 q -0.029297,0 -0.041992,-0.01172 -0.012695,-0.01172 -0.012695,-0.0293 0,-0.01855 0.012695,-0.0293 0.012695,-0.01172 0.041992,-0.01172 H 9.2996483 V 55.647781 H 9.1892967 q -0.029297,0 -0.041992,-0.01074 -0.012695,-0.01172 -0.012695,-0.03027 0,-0.01855 0.012695,-0.0293 0.012695,-0.01172 0.041992,-0.01172 h 0.4765625 q 0.1689453,0 0.2753906,0.09961 0.1074222,0.09961 0.1074222,0.233399 0,0.0791 -0.03516,0.142578 -0.034179,0.06348 -0.083007,0.09961 -0.073242,0.05469 -0.1513672,0.08008 -0.056641,0.01855 -0.140625,0.01855 z m 0,-0.08203 h 0.2617188 q 0.09082,0 0.1699219,-0.04004 0.080078,-0.04102 0.1162109,-0.09961 0.037109,-0.05859 0.037109,-0.119141 0,-0.09668 -0.083008,-0.173828 -0.083008,-0.07715 -0.209961,-0.07715 H 9.3816795 Z m 1.7382815,0.550781 h -0.128906 l -0.232422,-0.811523 -0.227539,0.811523 h -0.128907 l -0.121093,-1.060547 h -0.03027 q -0.0293,0 -0.04199,-0.01074 -0.0127,-0.01172 -0.0127,-0.03027 0,-0.01855 0.0127,-0.0293 0.01269,-0.01172 0.04199,-0.01172 h 0.304688 q 0.03027,0 0.04297,0.01172 0.0127,0.01074 0.0127,0.0293 0,0.01855 -0.0127,0.03027 -0.01269,0.01074 -0.04297,0.01074 h -0.191407 l 0.108399,0.966797 0.22168,-0.795898 h 0.125976 l 0.227539,0.795898 0.106445,-0.966797 h -0.192382 q -0.0293,0 -0.04199,-0.01074 -0.0127,-0.01172 -0.0127,-0.03027 0,-0.01855 0.0127,-0.0293 0.0127,-0.01172 0.04199,-0.01172 h 0.302734 q 0.03027,0 0.04297,0.01172 0.0127,0.01074 0.0127,0.0293 0,0.01855 -0.0127,0.03027 -0.0127,0.01074 -0.04297,0.01074 h -0.03027 z"
     id="text11"
     class="label-small"
     style="font-size:2px;font-family:'Share Tech Mono', monospace, sans-serif;text-anchor:middle;fill:#00ff88"
     aria-label="PW" /><path
     d="m 30.240742,56.207222 v -0.05762 q 0,-0.0293 0.01074,-0.04199 0.01172,-0.0127 0.03027,-0.0127 0.01856,0 0.0293,0.0127 0.01172,0.0127 0.01172,0.04199 v 0.227539 q 0,0.03027 -0.01172,0.04297 -0.01074,0.0127 -0.0293,0.0127 -0.0166,0 -0.02832,-0.01172 -0.01074,-0.01172 -0.0127,-0.03809 -0.0049,-0.08203 -0.08887,-0.145508 -0.113282,-0.08691 -0.257813,-0.08691 -0.09473,0 -0.178711,0.04199 -0.0625,0.03027 -0.09961,0.07422 -0.06445,0.07617 -0.102539,0.168946 -0.02734,0.06836 -0.02734,0.154296 v 0.143555 q 0,0.183594 0.132812,0.319336 0.132813,0.134766 0.308594,0.134766 0.105469,0 0.188477,-0.0459 0.08398,-0.0459 0.162109,-0.138672 0.0166,-0.02051 0.03711,-0.02051 0.01758,0 0.02832,0.01074 0.01074,0.01074 0.01074,0.02734 0,0.02246 -0.04199,0.06836 -0.08008,0.08984 -0.180664,0.135742 -0.09961,0.04492 -0.202149,0.04492 -0.08887,0 -0.180664,-0.03418 -0.07031,-0.02637 -0.116211,-0.06152 -0.0459,-0.03516 -0.113281,-0.118164 -0.06641,-0.08398 -0.09082,-0.154297 -0.02441,-0.07129 -0.02441,-0.15625 v -0.166992 q 0,-0.121094 0.06445,-0.247071 0.06543,-0.126953 0.177734,-0.194336 0.113281,-0.06836 0.245117,-0.06836 0.203125,0 0.34961,0.138672 z m 0.90039,1.030273 h -0.114257 l -0.413086,-1.060546 h -0.06348 q -0.02246,0 -0.03223,-0.0039 -0.0098,-0.0049 -0.0166,-0.01465 -0.0059,-0.01074 -0.0059,-0.02246 0,-0.01172 0.0059,-0.02148 0.0068,-0.01074 0.0166,-0.01465 0.0098,-0.0049 0.03223,-0.0049 h 0.305664 q 0.02344,0 0.03223,0.0049 0.0098,0.0039 0.01563,0.01465 0.0068,0.0098 0.0068,0.02148 0,0.01172 -0.0068,0.02246 -0.0068,0.0098 -0.0166,0.01465 -0.0088,0.0039 -0.03125,0.0039 H 30.69875 l 0.380859,0.978515 h 0.0059 l 0.375977,-0.978515 h -0.15625 q -0.02344,0 -0.0332,-0.0039 -0.0098,-0.0049 -0.0166,-0.01465 -0.0059,-0.01074 -0.0059,-0.02246 0,-0.01172 0.0068,-0.02148 0.0068,-0.01074 0.01563,-0.01465 0.0098,-0.0049 0.0332,-0.0049 h 0.304687 q 0.02344,0 0.0332,0.0049 0.0098,0.0039 0.01563,0.01465 0.0068,0.0098 0.0068,0.02148 0,0.01172 -0.0068,0.02246 -0.0068,0.0098 -0.0166,0.01465 -0.0088,0.0039 -0.03223,0.0039 h -0.0625 z"
     id="text12"
     class="label-small"
     style="font-size:2px;font-family:'Share Tech Mono', monospace, sans-serif;text-anchor:middle;fill:#00ff88"
     aria-label="CV" /><!-- FM label --><path
     d="m 17.121758,71.098236 v 0.469727 h 0.28125 q 0.0293,0 0.04199,0.01172 0.0127,0.01074 0.0127,0.0293 0,0.01758 -0.0127,0.0293 -0.0127,0.01172 -0.04199,0.01172 h -0.473633 q -0.0293,0 -0.04199,-0.01172 -0.0127,-0.01172 -0.0127,-0.0293 0,-0.01855 0.0127,-0.0293 0.0127,-0.01172 0.04199,-0.01172 h 0.110351 v -0.978516 h -0.110351 q -0.0293,0 -0.04199,-0.01074 -0.0127,-0.01172 -0.0127,-0.03027 0,-0.01855 0.01465,-0.03125 0.01074,-0.0098 0.04004,-0.0098 h 0.90332 v 0.282226 q 0,0.0293 -0.01172,0.04199 -0.01172,0.01269 -0.0293,0.01269 -0.01855,0 -0.03027,-0.01269 -0.01172,-0.0127 -0.01172,-0.04199 v -0.200195 h -0.627929 v 0.426758 h 0.293945 v -0.09277 q 0,-0.0293 0.01172,-0.04199 0.01172,-0.01269 0.03027,-0.01269 0.01758,0 0.0293,0.01269 0.01172,0.0127 0.01172,0.04199 v 0.267579 q 0,0.0293 -0.01172,0.04199 -0.01172,0.0127 -0.0293,0.0127 -0.01856,0 -0.03027,-0.0127 -0.01172,-0.0127 -0.01172,-0.04199 v -0.09277 z m 1.452148,0.208984 h -0.09375 l -0.31543,-0.717773 h -0.01563 v 0.978516 h 0.151367 q 0.0293,0 0.04199,0.01172 0.0127,0.01074 0.0127,0.0293 0,0.01758 -0.0127,0.0293 -0.0127,0.01172 -0.04199,0.01172 h -0.302734 q -0.0293,0 -0.04199,-0.01172 -0.0127,-0.01172 -0.0127,-0.0293 0,-0.01855 0.0127,-0.0293 0.0127,-0.01172 0.04199,-0.01172 h 0.06934 v -0.978516 h -0.05176 q -0.0293,0 -0.04199,-0.01074 -0.0127,-0.01172 -0.0127,-0.03027 0,-0.01855 0.0127,-0.0293 0.01269,-0.01172 0.04199,-0.01172 h 0.201172 l 0.310547,0.707031 0.305664,-0.707031 h 0.201172 q 0.03027,0 0.04297,0.01172 0.0127,0.01074 0.0127,0.0293 0,0.01856 -0.0127,0.03027 -0.0127,0.01074 -0.04297,0.01074 h -0.05078 v 0.978516 h 0.06836 q 0.03027,0 0.04297,0.01172 0.0127,0.01074 0.0127,0.0293 0,0.01758 -0.0127,0.0293 -0.0127,0.01172 -0.04297,0.01172 h -0.301758 q -0.0293,0 -0.04297,-0.01172 -0.01269,-0.01172 -0.01269,-0.0293 0,-0.01855 0.01269,-0.0293 0.0127,-0.01172 0.04297,-0.01172 h 0.151367 v -0.978516 h -0.01758 z m 2.616211,-0.03906 h -0.539063 l -0.110351,0.299805 h 0.157226 q 0.0293,0 0.04199,0.01172 0.0127,0.01074 0.0127,0.0293 0,0.01758 -0.0127,0.0293 -0.0127,0.01172 -0.04199,0.01172 h -0.30664 q -0.0293,0 -0.04199,-0.01172 -0.0127,-0.01172 -0.0127,-0.0293 0,-0.01855 0.0127,-0.0293 0.0127,-0.01172 0.04199,-0.01172 h 0.06348 l 0.362305,-0.978516 h -0.242187 q -0.0293,0 -0.04199,-0.01074 -0.01269,-0.01172 -0.01269,-0.03027 0,-0.01855 0.01269,-0.0293 0.0127,-0.01172 0.04199,-0.01172 h 0.413085 l 0.400391,1.060547 h 0.06348 q 0.0293,0 0.04199,0.01172 0.0127,0.01074 0.0127,0.0293 0,0.01758 -0.0127,0.0293 -0.0127,0.01172 -0.04199,0.01172 h -0.305664 q -0.03027,0 -0.04297,-0.01172 -0.0127,-0.01172 -0.0127,-0.0293 0,-0.01855 0.0127,-0.0293 0.0127,-0.01172 0.04297,-0.01172 h 0.15625 z m -0.03125,-0.08203 -0.226563,-0.59668 h -0.03027 l -0.219727,0.59668 z m 1.015625,0.121093 h -0.09375 l -0.31543,-0.717773 h -0.01563 v 0.978516 h 0.151367 q 0.0293,0 0.04199,0.01172 0.0127,0.01074 0.0127,0.0293 0,0.01758 -0.0127,0.0293 -0.0127,0.01172 -0.04199,0.01172 H 21.59832 q -0.0293,0 -0.04199,-0.01172 -0.0127,-0.01172 -0.0127,-0.0293 0,-0.01855 0.0127,-0.0293 0.0127,-0.01172 0.04199,-0.01172 h 0.06934 v -0.978516 h -0.05176 q -0.0293,0 -0.04199,-0.01074 -0.0127,-0.01172 -0.0127,-0.03027 0,-0.01855 0.0127,-0.0293 0.0127,-0.01172 0.04199,-0.01172 h 0.201172 l 0.310547,0.707031 0.305664,-0.707031 h 0.201172 q 0.03027,0 0.04297,0.01172 0.0127,0.01074 0.0127,0.0293 0,0.01856 -0.0127,0.03027 -0.0127,0.01074 -0.04297,0.01074 h -0.05078 v 0.978516 h 0.06836 q 0.03027,0 0.04297,0.01172 0.0127,0.01074 0.0127,0.0293 0,0.01758 -0.0127,0.0293 -0.0127,0.01172 -0.04297,0.01172 h -0.301758 q -0.0293,0 -0.04297,-0.01172 -0.01269,-0.01172 -0.01269,-0.0293 0,-0.01855 0.01269,-0.0293 0.0127,-0.01172 0.04297,-0.01172 h 0.151367 v -0.978516 h -0.01758 z m 1.186523,-0.717773 v 0.978516 h 0.212891 q 0.0293,0 0.04199,0.01172 0.01269,0.01074 0.01269,0.0293 0,0.01758 -0.01269,0.0293 -0.0127,0.01172 -0.04199,0.01172 h -0.508789 q -0.0293,0 -0.04199,-0.01172 -0.0127,-0.01172 -0.0127,-0.0293 0,-0.01855 0.0127,-0.0293 0.0127,-0.01172 0.04199,-0.01172 h 0.212891 V 70.589447 H 22.94207 v 0.28418 q 0,0.03027 -0.01172,0.04297 -0.01074,0.0127 -0.0293,0.0127 -0.01758,0 -0.0293,-0.0127 -0.01172,-0.0127 -0.01172,-0.04297 v -0.366211 h 0.918945 v 0.366211 q 0,0.03027 -0.01172,0.04297 -0.01074,0.0127 -0.0293,0.0127 -0.01855,0 -0.03027,-0.0127 -0.01074,-0.0127 -0.01074,-0.04297 v -0.28418 z"
     id="text13"
     class="label-small"
     style="font-size:2px;font-family:'Share Tech Mono', monospace, sans-serif;text-anchor:middle;fill:#00ff88"
     aria-label="FM AMT" /><!-- Input labels --><path
     d="M 7.8206444,88.412498 H 7.7063866 l -0.413086,-1.060546 h -0.063477 q -0.022461,0 -0.032227,-0.0039 -0.00977,-0.0049 -0.016602,-0.01465 -0.00586,-0.01074 -0.00586,-0.02246 0,-0.01172 0.00586,-0.02148 0.00684,-0.01074 0.016602,-0.01465 0.00977,-0.0049 0.032227,-0.0049 h 0.305664 q 0.023437,0 0.032227,0.0049 0.00977,0.0039 0.015625,0.01465 0.00684,0.0098 0.00684,0.02148 0,0.01172 -0.00684,0.02246 -0.00684,0.0098 -0.016602,0.01465 -0.00879,0.0039 -0.03125,0.0039 H 7.3782616 l 0.3808593,0.978515 h 0.00586 l 0.3759766,-0.978515 h -0.15625 q -0.023437,0 -0.033203,-0.0039 -0.00977,-0.0049 -0.016602,-0.01465 -0.00586,-0.01074 -0.00586,-0.02246 0,-0.01172 0.00684,-0.02148 0.00684,-0.01074 0.015625,-0.01465 0.00977,-0.0049 0.033203,-0.0049 h 0.3046875 q 0.023437,0 0.033203,0.0049 0.00977,0.0039 0.015625,0.01465 0.00684,0.0098 0.00684,0.02148 0,0.01172 -0.00684,0.02246 -0.00684,0.0098 -0.016602,0.01465 -0.00879,0.0039 -0.032226,0.0039 h -0.0625 z m 1.5078125,-1.285156 -0.6601563,1.414063 q -0.016602,0.03613 -0.042969,0.03613 -0.016602,0 -0.029297,-0.0127 -0.011719,-0.01172 -0.011719,-0.02637 0,-0.01172 0.00977,-0.03223 l 0.6591797,-1.414062 q 0.010742,-0.02246 0.020508,-0.0293 0.00977,-0.0068 0.023437,-0.0068 0.016601,0 0.02832,0.01269 0.012695,0.01172 0.012695,0.02637 0,0.01074 -0.00977,0.03223 z m 1.3330081,0.716797 q 0,0.164063 -0.06641,0.304688 -0.06641,0.139648 -0.183593,0.217773 -0.116211,0.07813 -0.25,0.07813 -0.1982425,0 -0.3496097,-0.167969 -0.1503906,-0.168945 -0.1503906,-0.432617 0,-0.264648 0.1503906,-0.432617 0.1513672,-0.167969 0.3496097,-0.167969 0.133789,0 0.25,0.07813 0.116211,0.07813 0.182617,0.217774 0.06738,0.139648 0.06738,0.304687 z m -0.08301,0 q 0,-0.200195 -0.116211,-0.359375 -0.116211,-0.15918 -0.300781,-0.15918 -0.1728519,0 -0.2958987,0.152344 -0.1220704,0.151367 -0.1220704,0.366211 0,0.228516 0.1279297,0.374024 0.1289064,0.144531 0.2900394,0.144531 0.18457,0 0.300781,-0.158203 0.116211,-0.15918 0.116211,-0.360352 z m 1.142578,-0.461914 v -0.05762 q 0,-0.0293 0.01074,-0.04199 0.01172,-0.0127 0.03027,-0.0127 0.01855,0 0.0293,0.0127 0.01172,0.01269 0.01172,0.04199 v 0.227539 q 0,0.03027 -0.01172,0.04297 -0.01074,0.01269 -0.0293,0.01269 -0.0166,0 -0.02832,-0.01172 -0.01074,-0.01172 -0.01269,-0.03809 -0.0049,-0.08203 -0.08887,-0.145508 -0.113281,-0.08691 -0.257813,-0.08691 -0.09473,0 -0.178711,0.04199 -0.0625,0.03027 -0.09961,0.07422 -0.06445,0.07617 -0.102539,0.168946 -0.02734,0.06836 -0.02734,0.154297 v 0.143554 q 0,0.183594 0.132813,0.319336 0.132812,0.134766 0.308593,0.134766 0.105469,0 0.188477,-0.0459 0.08398,-0.0459 0.162109,-0.138672 0.0166,-0.02051 0.03711,-0.02051 0.01758,0 0.02832,0.01074 0.01074,0.01074 0.01074,0.02734 0,0.02246 -0.04199,0.06836 -0.08008,0.08984 -0.180664,0.135742 -0.09961,0.04492 -0.202148,0.04492 -0.08887,0 -0.180664,-0.03418 -0.07031,-0.02637 -0.116211,-0.06152 -0.0459,-0.03516 -0.113282,-0.118164 -0.06641,-0.08398 -0.09082,-0.154297 -0.02441,-0.07129 -0.02441,-0.15625 v -0.166992 q 0,-0.121094 0.06445,-0.247071 0.06543,-0.126953 0.177734,-0.194335 0.113282,-0.06836 0.245118,-0.06836 0.203125,0 0.349609,0.138672 z m 0.879883,-0.03027 v 0.978515 h 0.21289 q 0.0293,0 0.04199,0.01172 0.0127,0.01074 0.0127,0.0293 0,0.01758 -0.0127,0.0293 -0.0127,0.01172 -0.04199,0.01172 h -0.508789 q -0.0293,0 -0.04199,-0.01172 -0.01269,-0.01172 -0.01269,-0.0293 0,-0.01855 0.01269,-0.0293 0.0127,-0.01172 0.04199,-0.01172 h 0.212891 v -0.978515 h -0.335937 v 0.284179 q 0,0.03027 -0.01172,0.04297 -0.01074,0.01269 -0.0293,0.01269 -0.01758,0 -0.0293,-0.01269 -0.01172,-0.0127 -0.01172,-0.04297 V 87.26992 h 0.918946 v 0.366211 q 0,0.03027 -0.01172,0.04297 -0.01074,0.01269 -0.0293,0.01269 -0.01856,0 -0.03027,-0.01269 -0.01074,-0.0127 -0.01074,-0.04297 v -0.284179 z"
     id="text14"
     class="label-small"
     style="font-size:2px;font-family:'Share Tech Mono', monospace, sans-serif;text-anchor:middle;fill:#00ff88"
     aria-label="V/OCT" /><path
     d="m 29.682148,87.860741 v 0.469726 h 0.28125 q 0.0293,0 0.04199,0.01172 0.0127,0.01074 0.0127,0.0293 0,0.01758 -0.0127,0.0293 -0.01269,0.01172 -0.04199,0.01172 h -0.473633 q -0.0293,0 -0.04199,-0.01172 -0.0127,-0.01172 -0.0127,-0.0293 0,-0.01855 0.0127,-0.0293 0.01269,-0.01172 0.04199,-0.01172 h 0.110352 v -0.978515 h -0.110352 q -0.0293,0 -0.04199,-0.01074 -0.0127,-0.01172 -0.0127,-0.03027 0,-0.01855 0.01465,-0.03125 0.01074,-0.0098 0.04004,-0.0098 h 0.90332 v 0.282227 q 0,0.0293 -0.01172,0.04199 -0.01172,0.0127 -0.0293,0.0127 -0.01856,0 -0.03027,-0.0127 -0.01172,-0.01269 -0.01172,-0.04199 v -0.200195 h -0.62793 v 0.426757 h 0.293945 v -0.09277 q 0,-0.0293 0.01172,-0.04199 0.01172,-0.0127 0.03027,-0.0127 0.01758,0 0.0293,0.0127 0.01172,0.01269 0.01172,0.04199 v 0.267578 q 0,0.0293 -0.01172,0.04199 -0.01172,0.0127 -0.0293,0.0127 -0.01855,0 -0.03027,-0.0127 -0.01172,-0.0127 -0.01172,-0.04199 v -0.09277 z m 1.452148,0.208984 h -0.09375 l -0.315429,-0.717773 h -0.01563 v 0.978515 h 0.151367 q 0.0293,0 0.04199,0.01172 0.0127,0.01074 0.0127,0.0293 0,0.01758 -0.0127,0.0293 -0.01269,0.01172 -0.04199,0.01172 h -0.302734 q -0.0293,0 -0.04199,-0.01172 -0.01269,-0.01172 -0.01269,-0.0293 0,-0.01855 0.01269,-0.0293 0.0127,-0.01172 0.04199,-0.01172 h 0.06933 v -0.978515 h -0.05176 q -0.0293,0 -0.04199,-0.01074 -0.0127,-0.01172 -0.0127,-0.03027 0,-0.01855 0.0127,-0.0293 0.0127,-0.01172 0.04199,-0.01172 h 0.201172 l 0.310546,0.707032 0.305664,-0.707032 h 0.201172 q 0.03027,0 0.04297,0.01172 0.0127,0.01074 0.0127,0.0293 0,0.01856 -0.0127,0.03027 -0.01269,0.01074 -0.04297,0.01074 h -0.05078 v 0.978515 h 0.06836 q 0.03027,0 0.04297,0.01172 0.0127,0.01074 0.0127,0.0293 0,0.01758 -0.0127,0.0293 -0.01269,0.01172 -0.04297,0.01172 h -0.301757 q -0.0293,0 -0.04297,-0.01172 -0.0127,-0.01172 -0.0127,-0.0293 0,-0.01855 0.0127,-0.0293 0.01269,-0.01172 0.04297,-0.01172 h 0.151367 v -0.978515 h -0.01758 z"
     id="text15"
     class="label-small"
     style="font-size:2px;font-family:'Share Tech Mono', monospace, sans-serif;text-anchor:middle;fill:#00ff88"
     aria-label="FM" /><path
     d="m 9.3816795,100.94376 v 0.38672 h 0.28125 q 0.029297,0 0.041992,0.0117 0.012695,0.0107 0.012695,0.0293 0,0.0176 -0.012695,0.0293 -0.012695,0.0117 -0.041992,0.0117 H 9.1892967 q -0.029297,0 -0.041992,-0.0117 -0.012695,-0.0117 -0.012695,-0.0293 0,-0.0186 0.012695,-0.0293 0.012695,-0.0117 0.041992,-0.0117 h 0.1103516 v -0.97851 H 9.1892967 q -0.029297,0 -0.041992,-0.0107 -0.012695,-0.0117 -0.012695,-0.0303 0,-0.0186 0.012695,-0.0293 0.012695,-0.0117 0.041992,-0.0117 h 0.4765625 q 0.1689453,0 0.2753906,0.0996 0.1074222,0.0996 0.1074222,0.2334 0,0.0791 -0.03516,0.14258 -0.034179,0.0635 -0.083007,0.0996 -0.073242,0.0547 -0.1513672,0.0801 -0.056641,0.0185 -0.140625,0.0185 z m 0,-0.082 h 0.2617188 q 0.09082,0 0.1699219,-0.04 0.080078,-0.041 0.1162109,-0.0996 0.037109,-0.0586 0.037109,-0.11914 0,-0.0967 -0.083008,-0.17382 -0.083008,-0.0772 -0.209961,-0.0772 H 9.3816795 Z m 1.7382815,0.55078 h -0.128906 l -0.232422,-0.81152 -0.227539,0.81152 h -0.128907 l -0.121093,-1.06054 h -0.03027 q -0.0293,0 -0.04199,-0.0107 -0.0127,-0.0117 -0.0127,-0.0303 0,-0.0186 0.0127,-0.0293 0.01269,-0.0117 0.04199,-0.0117 h 0.304688 q 0.03027,0 0.04297,0.0117 0.0127,0.0108 0.0127,0.0293 0,0.0186 -0.0127,0.0303 -0.01269,0.0107 -0.04297,0.0107 h -0.191407 l 0.108399,0.96679 0.22168,-0.79589 h 0.125976 l 0.227539,0.79589 0.106445,-0.96679 h -0.192382 q -0.0293,0 -0.04199,-0.0107 -0.0127,-0.0117 -0.0127,-0.0303 0,-0.0186 0.0127,-0.0293 0.0127,-0.0117 0.04199,-0.0117 h 0.302734 q 0.03027,0 0.04297,0.0117 0.0127,0.0108 0.0127,0.0293 0,0.0186 -0.0127,0.0303 -0.0127,0.0107 -0.04297,0.0107 h -0.03027 z"
     id="text16"
     class="label-small"
     style="font-size:2px;font-family:'Share Tech Mono', monospace, sans-serif;text-anchor:middle;fill:#00ff88"
     aria-label="PW" /><path
     d="m 28.973164,100.88113 v -0.0273 q 0,-0.0293 0.01074,-0.042 0.01172,-0.0127 0.03027,-0.0127 0.01856,0 0.0293,0.0127 0.01172,0.0127 0.01172,0.042 v 0.20898 q 0,0.0293 -0.01172,0.042 -0.01074,0.0127 -0.0293,0.0127 -0.01758,0 -0.0293,-0.0117 -0.01074,-0.0117 -0.01172,-0.0381 -0.0049,-0.082 -0.08496,-0.14746 -0.0791,-0.0654 -0.208008,-0.0654 -0.135742,0 -0.21582,0.0703 -0.08008,0.0693 -0.08008,0.16406 0,0.0488 0.02246,0.0889 0.02246,0.04 0.05957,0.0654 0.03711,0.0244 0.08398,0.04 0.04687,0.0147 0.146484,0.0312 0.166993,0.0273 0.230469,0.0557 0.08496,0.0381 0.12793,0.10547 0.04394,0.0674 0.04394,0.15918 0,0.14063 -0.112305,0.24023 -0.112304,0.0986 -0.302734,0.0986 -0.213867,0 -0.341797,-0.13379 v 0.0469 q 0,0.0293 -0.01172,0.042 -0.01074,0.0127 -0.0293,0.0127 -0.01758,0 -0.0293,-0.0127 -0.01172,-0.0127 -0.01172,-0.042 v -0.22656 q 0,-0.0303 0.01074,-0.043 0.01172,-0.0127 0.03027,-0.0127 0.01758,0 0.02832,0.0117 0.01172,0.0117 0.01269,0.0381 0.0049,0.0898 0.0957,0.16406 0.0918,0.0733 0.246094,0.0733 0.154297,0 0.243164,-0.0772 0.08984,-0.0772 0.08984,-0.18262 0,-0.0644 -0.03418,-0.11426 -0.03418,-0.0508 -0.101562,-0.0801 -0.04687,-0.0205 -0.195313,-0.0459 -0.204101,-0.0342 -0.293945,-0.1045 -0.08984,-0.0703 -0.08984,-0.20019 0,-0.12891 0.102539,-0.22168 0.103516,-0.0928 0.272461,-0.0928 0.171875,0 0.295899,0.10839 z m 0.950195,0.54493 v 0.43359 h 0.212891 q 0.0293,0 0.04199,0.0117 0.0127,0.0107 0.0127,0.0293 0,0.0176 -0.0127,0.0293 -0.0127,0.0117 -0.04199,0.0117 h -0.50879 q -0.0293,0 -0.04199,-0.0117 -0.01269,-0.0117 -0.01269,-0.0293 0,-0.0186 0.01172,-0.0293 0.0127,-0.0117 0.04297,-0.0117 h 0.212891 v -0.43359 L 29.48,100.88113 h -0.04883 q -0.0293,0 -0.04199,-0.0107 -0.01269,-0.0117 -0.01269,-0.0303 0,-0.0186 0.01269,-0.0293 0.0127,-0.0117 0.04199,-0.0117 h 0.225586 q 0.0293,0 0.04199,0.0117 0.0127,0.0107 0.0127,0.0293 0,0.0186 -0.0127,0.0303 -0.0127,0.0107 -0.04199,0.0107 h -0.08105 l 0.30664,0.46192 0.299805,-0.46192 h -0.08008 q -0.03027,0 -0.04297,-0.0107 -0.01269,-0.0117 -0.01269,-0.0303 0,-0.0186 0.01269,-0.0293 0.0127,-0.0117 0.04297,-0.0117 h 0.224609 q 0.0293,0 0.04199,0.0117 0.0127,0.0107 0.0127,0.0293 0,0.0186 -0.0127,0.0303 -0.0127,0.0107 -0.04199,0.0107 h -0.04883 z m 1.558594,0.51562 h -0.105469 l -0.604492,-1.02246 v 0.94043 h 0.151367 q 0.03027,0 0.04297,0.0117 0.0127,0.0107 0.0127,0.0293 0,0.0176 -0.0127,0.0293 -0.0127,0.0117 -0.04297,0.0117 h -0.301758 q -0.03027,0 -0.04297,-0.0117 -0.01269,-0.0117 -0.01269,-0.0293 0,-0.0186 0.01269,-0.0293 0.0127,-0.0117 0.04297,-0.0117 h 0.06836 v -0.97852 h -0.110351 q -0.0293,0 -0.04199,-0.0107 -0.0127,-0.0117 -0.0127,-0.0303 0,-0.0186 0.0127,-0.0293 0.0127,-0.0117 0.04199,-0.0117 h 0.214844 l 0.605468,1.02442 v -0.94239 h -0.151367 q -0.0293,0 -0.04199,-0.0107 -0.0127,-0.0117 -0.0127,-0.0303 0,-0.0186 0.01172,-0.0293 0.0127,-0.0117 0.04297,-0.0117 h 0.302735 q 0.0293,0 0.04199,0.0117 0.01269,0.0107 0.01269,0.0293 0,0.0186 -0.01269,0.0303 -0.0127,0.0107 -0.04199,0.0107 h -0.06934 z m 1.159179,-1.03027 v -0.0576 q 0,-0.0293 0.01074,-0.042 0.01172,-0.0127 0.03027,-0.0127 0.01855,0 0.0293,0.0127 0.01172,0.0127 0.01172,0.042 v 0.22754 q 0,0.0303 -0.01172,0.043 -0.01074,0.0127 -0.0293,0.0127 -0.0166,0 -0.02832,-0.0117 -0.01074,-0.0117 -0.0127,-0.0381 -0.0049,-0.082 -0.08887,-0.14551 -0.113281,-0.0869 -0.257812,-0.0869 -0.09473,0 -0.178711,0.042 -0.0625,0.0303 -0.09961,0.0742 -0.06445,0.0762 -0.102539,0.16894 -0.02734,0.0684 -0.02734,0.1543 v 0.14355 q 0,0.1836 0.132812,0.31934 0.132813,0.13477 0.308594,0.13477 0.105469,0 0.188476,-0.0459 0.08398,-0.0459 0.16211,-0.13867 0.0166,-0.0205 0.03711,-0.0205 0.01758,0 0.02832,0.0107 0.01074,0.0107 0.01074,0.0273 0,0.0225 -0.04199,0.0684 -0.08008,0.0898 -0.180664,0.13575 -0.09961,0.0449 -0.202148,0.0449 -0.08887,0 -0.180664,-0.0342 -0.07031,-0.0264 -0.116211,-0.0615 -0.0459,-0.0352 -0.113281,-0.11816 -0.06641,-0.084 -0.09082,-0.1543 -0.02441,-0.0713 -0.02441,-0.15625 v -0.16699 q 0,-0.12109 0.06445,-0.24707 0.06543,-0.12695 0.177735,-0.19434 0.113281,-0.0683 0.245117,-0.0683 0.203125,0 0.349609,0.13867 z"
     id="text17"
     class="label-small"
     style="font-size:2px;font-family:'Share Tech Mono', monospace, sans-serif;text-anchor:middle;fill:#00ff88"
     aria-label="SYNC" /><!-- Output label --><path
     d="m 19.446587,113.81871 q 0,0.20508 -0.08301,0.38086 -0.08301,0.17456 -0.229492,0.27222 -0.145264,0.0977 -0.3125,0.0977 -0.247803,0 -0.437012,-0.20996 -0.187988,-0.21118 -0.187988,-0.54077 0,-0.33081 0.187988,-0.54077 0.189209,-0.20996 0.437012,-0.20996 0.167236,0 0.3125,0.0976 0.145263,0.0977 0.228271,0.27222 0.08423,0.17456 0.08423,0.38086 z m -0.10376,0 q 0,-0.25024 -0.145264,-0.44922 -0.145264,-0.19897 -0.375976,-0.19897 -0.216065,0 -0.369873,0.19043 -0.152588,0.18921 -0.152588,0.45776 0,0.28564 0.159912,0.46753 0.161133,0.18066 0.362549,0.18066 0.230712,0 0.375976,-0.19775 0.145264,-0.19897 0.145264,-0.45044 z m 1.473389,-0.61523 v 0.85693 q 0,0.21606 -0.144043,0.36255 -0.144043,0.14648 -0.347901,0.14648 -0.136719,0 -0.24292,-0.0598 -0.106201,-0.0598 -0.180664,-0.18067 -0.07446,-0.12207 -0.07446,-0.26855 v -0.85693 h -0.08667 q -0.03662,0 -0.05249,-0.0134 -0.01587,-0.0147 -0.01587,-0.0378 0,-0.0232 0.01709,-0.0391 0.01465,-0.0122 0.05127,-0.0122 h 0.378418 q 0.03662,0 0.05249,0.0147 0.01587,0.0134 0.01587,0.0366 0,0.0232 -0.01587,0.0378 -0.01587,0.0134 -0.05249,0.0134 h -0.189209 v 0.85693 q 0,0.16968 0.115967,0.28809 0.115967,0.1184 0.274658,0.1184 0.101319,0 0.184327,-0.0464 0.08423,-0.0464 0.146484,-0.14283 0.06348,-0.0964 0.06348,-0.21728 v -0.85693 h -0.189209 q -0.03662,0 -0.05249,-0.0134 -0.01587,-0.0147 -0.01587,-0.0378 0,-0.0232 0.01587,-0.0366 0.01587,-0.0147 0.05249,-0.0147 h 0.378418 q 0.03662,0 0.05249,0.0147 0.01587,0.0134 0.01587,0.0366 0,0.0232 -0.01587,0.0378 -0.01587,0.0134 -0.05249,0.0134 z m 1.054687,0 v 1.22314 h 0.266113 q 0.03662,0 0.05249,0.0147 0.01587,0.0134 0.01587,0.0366 0,0.022 -0.01587,0.0366 -0.01587,0.0147 -0.05249,0.0147 H 21.50103 q -0.03662,0 -0.05249,-0.0147 -0.01587,-0.0147 -0.01587,-0.0366 0,-0.0232 0.01587,-0.0366 0.01587,-0.0147 0.05249,-0.0147 h 0.266113 v -1.22314 h -0.419922 v 0.35522 q 0,0.0378 -0.01465,0.0537 -0.01343,0.0159 -0.03662,0.0159 -0.02197,0 -0.03662,-0.0159 -0.01465,-0.0159 -0.01465,-0.0537 v -0.45776 h 1.148682 v 0.45776 q 0,0.0378 -0.01465,0.0537 -0.01343,0.0159 -0.03662,0.0159 -0.02319,0 -0.03784,-0.0159 -0.01343,-0.0159 -0.01343,-0.0537 v -0.35522 z"
     id="text18"
     class="label"
     style="font-size:2.5px;font-family:'Share Tech Mono', monospace, sans-serif;text-anchor:middle;fill:#00ff88"
     aria-label="OUT" /><!-- Decorative pixels/bits --><g
     fill="#00ff88"
     opacity="0.3"
     id="g21"
     style="display:inline"><path
       id="rect18"
       d="m 4,10 h 1.5 v 1.5 H 4 Z" /><path
       id="rect19"
       d="m 6,10 h 1.5 v 1.5 H 6 Z" /><path
       id="rect20"
       d="m 33.139999,10 h 1.5 v 1.5 h -1.5 z" /><path
       id="rect21"
       d="m 35.139999,10 h 1.5 v 1.5 h -1.5 z" /></g></svg>
